<?xml version="1.0" encoding="UTF-8"?>
<svg width="51px" height="51px" viewBox="0 0 51 51" version="1.1" xmlns="http://www.w3.org/2000/svg" xmlns:xlink="http://www.w3.org/1999/xlink">
    <!-- Generator: Sketch 46.2 (44496) - http://www.bohemiancoding.com/sketch -->
    <title>Slice 1</title>
    <desc>Created with Sketch.</desc>
    <defs></defs>
    <g id="Page-1" stroke="none" stroke-width="1" fill="none" fill-rule="evenodd">
        <path d="M26.5354581,10.6147263 C26.5354581,10.6147263 25.1901867,10.4032509 24.2482523,11.3516118 C23.2786139,12.3270218 23.2362431,14.00735 24.2580301,15.0343994 C24.8618134,15.6417766 25.7133025,15.7712848 25.7133025,15.7712848 C27.3730953,16.0843997 29.8745994,16.6147276 32.5366234,19.2917774 C35.1978327,21.9688272 35.7250226,24.4852212 36.0362847,26.1557133 C36.0362847,26.1557133 36.1650266,27.0122709 36.7688098,27.6196481 C37.789782,28.6466975 39.4601675,28.6048942 40.4298059,27.6294841 C41.3717403,26.6819429 41.162331,25.328664 41.162331,25.328664 C40.6351411,21.946696 39.0054967,18.4139084 36.2073973,15.5991537 C33.4084832,12.7843989 29.8965996,11.145874 26.5354581,10.6147263 L26.5354581,10.6147263 Z M39.1546092,12.6343989 C44.0337644,17.5425967 46.1140054,23.1130897 45.4368881,27.6270251 C45.4368881,27.6270251 45.2005897,29.0565336 46.1286722,29.9901404 C47.1732742,31.0409603 48.8289929,30.9803045 49.8067795,29.9975174 C50.4350074,29.3655501 50.5718975,28.3368613 50.5718975,28.3368613 C51.1316803,24.4360408 50.427674,16.5884981 42.8253831,8.94177516 C35.2230922,1.29505219 27.4227995,0.586855319 23.5450607,1.14915052 C23.5450607,1.14915052 22.5232737,1.2860358 21.894231,1.91882282 C20.9164444,2.90242959 20.8569624,4.56800372 21.9015644,5.61882362 C22.8296468,6.55243038 24.2506967,6.31472541 24.2506967,6.31472541 C28.7379224,5.63357772 34.275454,7.72620113 39.1546092,12.6343989 L39.1546092,12.6343989 Z" id="Shape" fill="#FFFFFF" fill-rule="nonzero" opacity="0.498131793"></path>
        <path d="M20.0690293,31.8598129 C24.5285511,36.3130926 29.6904496,40.5671919 31.7169123,38.513093 C34.6184941,35.5729285 36.4045843,33.0147312 42.8433092,38.1803061 C49.282034,43.34834 44.3645822,46.8262096 41.5542605,49.6753905 C38.3112682,52.9622765 26.164714,49.9057185 14.1249015,37.8860437 C2.08590387,25.86391 -1.04545776,13.6688254 2.19997897,10.3803001 C5.01111548,7.53111912 8.43173898,2.55980657 13.614008,8.99915222 C18.7987215,15.4352192 16.2695135,17.251613 13.3679317,20.1925973 C11.3422838,22.2458764 15.6086927,27.4057136 20.0690293,31.8598129 L20.0690293,31.8598129 Z" id="Path" fill="#FFFFFF" fill-rule="nonzero"></path>
    </g>
</svg>