<?xml version="1.0" encoding="UTF-8"?>
<svg width="512px" height="513px" viewBox="0 0 512 513" version="1.1" xmlns="http://www.w3.org/2000/svg" xmlns:xlink="http://www.w3.org/1999/xlink">
    <!-- Generator: Sketch 48.2 (47327) - http://www.bohemiancoding.com/sketch -->
    <title>002-reindeer</title>
    <desc>Created with Sketch.</desc>
    <defs>
        <linearGradient x1="0%" y1="0%" x2="100%" y2="100%" id="linearGradient-1">
            <stop stop-color="#8D2DAB" offset="0%"></stop>
            <stop stop-color="#0000EE" offset="100%"></stop>
        </linearGradient>
        <linearGradient x1="0%" y1="0%" x2="100%" y2="100%" id="linearGradient-2">
            <stop stop-color="#934BAC" offset="0%"></stop>
            <stop stop-color="#1E1EEB" offset="100%"></stop>
        </linearGradient>
        <linearGradient x1="0%" y1="0%" x2="100%" y2="100%" id="linearGradient-3">
            <stop stop-color="#C69AD6" offset="0%"></stop>
            <stop stop-color="#4040E7" offset="100%"></stop>
        </linearGradient>
        <linearGradient x1="0%" y1="0%" x2="100%" y2="100%" id="linearGradient-4">
            <stop stop-color="#FFFFFF" offset="0%"></stop>
            <stop stop-color="#8A8A8A" offset="100%"></stop>
        </linearGradient>
        <linearGradient x1="0%" y1="0%" x2="100%" y2="100%" id="linearGradient-5">
            <stop stop-color="#FFFFFF" offset="0%"></stop>
            <stop stop-color="#3737E4" offset="100%"></stop>
        </linearGradient>
        <linearGradient x1="0%" y1="0%" x2="100%" y2="100%" id="linearGradient-6">
            <stop stop-color="#FFFFFF" offset="0%"></stop>
            <stop stop-color="#777777" offset="100%"></stop>
        </linearGradient>
        <linearGradient x1="0%" y1="0%" x2="100%" y2="100%" id="linearGradient-7">
            <stop stop-color="#ECECEC" offset="0%"></stop>
            <stop stop-color="#FFFFFF" offset="99.0553253%"></stop>
        </linearGradient>
        <linearGradient x1="100%" y1="0%" x2="0%" y2="100%" id="linearGradient-8">
            <stop stop-color="#B1B1B1" offset="0%"></stop>
            <stop stop-color="#FFFFFF" offset="100%"></stop>
        </linearGradient>
        <linearGradient x1="50%" y1="0%" x2="50%" y2="100%" id="linearGradient-9">
            <stop stop-color="#FFFFFF" offset="0%"></stop>
            <stop stop-color="#959595" offset="100%"></stop>
        </linearGradient>
    </defs>
    <g id="Page-1" stroke="none" stroke-width="1" fill="none" fill-rule="evenodd">
        <path d="M256,0 C397.386,0 512,114.614 512,256 C512,397.386 397.386,512 256,512 C114.614,512 0,397.386 0,256 C0,114.614 114.614,0 256,0 Z" id="Shape-Copy-14" fill="url(#linearGradient-1)" fill-rule="nonzero"></path>
        <path d="M55,262.834 L55.007,267.798 C55.035,280.399 55.987,283.166 57.753,290.679 L57.886,290.663 C73.018,379.333 146.304,448.157 237.108,456.49 L237.866,456.561 C239.064,456.659 240.269,456.758 241.474,456.845 L243.068,456.946 C244.097,457.017 245.118,457.069 246.152,457.124 C246.813,457.154 247.485,457.164 248.152,457.2 C249.075,457.225 249.987,457.269 250.91,457.296 C251.975,457.314 253.04,457.321 254.108,457.33 C254.628,457.341 255.157,457.35 255.674,457.35 L255.905,457.345 C257.415,457.345 258.922,457.32 260.413,457.295 L261.132,457.279 C262.554,457.233 263.963,457.18 265.369,457.114 L266.572,457.059 C267.822,456.986 269.083,456.905 270.328,456.816 L272.097,456.679 C272.917,456.608 273.725,456.537 274.536,456.459 C364.551,448.067 437.303,380.238 453.143,292.595 C455.069,285.072 455.09,282.725 456.059,270.802 L456.068,270.802 L456.286,270.795 L456.291,270.795 C456.321,270.037 456.337,269.295 456.35,268.546 L456.35,268.489 L456.35,268.434 L456.35,268.386 L456.35,268.269 L456.35,268.214 L456.35,268.166 L456.35,268.107 L456.35,268.05 L456.35,267.89 L456.35,267.833 L456.35,267.777 L456.35,267.727 L456.35,267.67 L456.352,267.67 L456.352,267.611 L456.352,267.558 L456.352,267.505 L456.352,267.446 L456.352,267.391 L456.352,267.339 L456.352,267.284 C457.617,252.324 455.665,227.739 450.587,208.72 L450.321,207.7 C428.461,120.548 349.607,56 255.675,56 C159.469,56 79.086,123.715 59.548,214.082 L59.546,214.082 C56.319,224.951 55.37,238.789 55.109,250.714 C55.047,252.7 55.008,254.688 55.008,256.679 L55.008,257.059 C55,259.091 55,261.02 55,262.834 Z" id="Shape-Copy-13" fill="url(#linearGradient-2)" fill-rule="nonzero" opacity="0.6"></path>
        <path d="M107,260.996 L107.005,264.69 C107.025,274.072 107.736,276.132 109.051,281.726 L109.149,281.715 C120.415,347.733 174.98,398.971 242.585,405.177 L243.151,405.23 C244.042,405.303 244.938,405.376 245.836,405.44 L247.022,405.516 C247.787,405.569 248.55,405.608 249.317,405.649 C249.81,405.672 250.309,405.679 250.806,405.706 C251.493,405.724 252.174,405.757 252.861,405.777 C253.653,405.791 254.446,405.797 255.24,405.802 C255.627,405.811 256.021,405.818 256.406,405.818 L256.58,405.816 C257.702,405.816 258.825,405.798 259.936,405.777 L260.472,405.766 C261.53,405.731 262.579,405.692 263.626,405.642 L264.519,405.6 C265.451,405.545 266.391,405.486 267.318,405.419 L268.632,405.318 C269.244,405.265 269.844,405.212 270.449,405.153 C337.465,398.906 391.632,348.407 403.427,283.152 C404.861,277.554 404.877,275.806 405.596,266.928 L405.603,266.928 L405.765,266.923 L405.77,266.923 C405.79,266.357 405.802,265.805 405.814,265.249 L405.814,265.205 L405.814,265.166 L405.814,265.129 L405.814,265.042 L405.814,265.001 L405.814,264.964 L405.814,264.92 L405.814,264.876 L405.814,264.757 L405.814,264.713 L405.814,264.672 L405.814,264.635 L405.814,264.594 L405.817,264.594 L405.817,264.55 L405.817,264.508 L405.817,264.469 L405.817,264.425 L405.817,264.384 L405.817,264.345 L405.817,264.303 C406.756,253.166 405.303,234.861 401.524,220.701 L401.327,219.941 C385.05,155.057 326.341,107 256.406,107 C184.779,107 124.934,157.416 110.386,224.694 L110.383,224.694 C107.981,232.786 107.275,243.09 107.08,251.968 C107.034,253.445 107.004,254.925 107.004,256.41 L107.004,256.692 C107,258.207 107,259.646 107,260.996 Z" id="Shape-Copy-12" fill="url(#linearGradient-3)" fill-rule="nonzero" opacity="0.4"></path>
        <polygon id="Triangle" stroke="url(#linearGradient-4)" stroke-width="5" points="257 125 371 322 143 322"></polygon>
        <path d="M163,259.167 L163.005,261.476 C163.017,267.333 163.459,268.62 164.281,272.113 L164.343,272.106 C171.378,313.332 205.453,345.33 247.671,349.206 L248.023,349.238 C248.58,349.284 249.141,349.33 249.7,349.371 L250.442,349.417 C250.919,349.451 251.395,349.474 251.876,349.499 C252.183,349.515 252.495,349.519 252.806,349.536 C253.234,349.547 253.658,349.568 254.087,349.58 C254.584,349.589 255.079,349.593 255.575,349.596 C255.816,349.603 256.061,349.605 256.301,349.605 L256.411,349.605 C257.112,349.605 257.813,349.593 258.505,349.58 L258.841,349.573 C259.501,349.553 260.156,349.527 260.811,349.498 L261.368,349.47 C261.952,349.436 262.537,349.399 263.116,349.358 L263.938,349.293 C264.32,349.261 264.694,349.229 265.072,349.193 C306.924,345.29 340.75,313.754 348.114,273.004 C349.01,269.507 349.019,268.416 349.47,262.873 L349.475,262.873 L349.576,262.868 L349.578,262.868 C349.592,262.515 349.598,262.172 349.606,261.823 L349.606,261.795 L349.606,261.77 L349.606,261.747 L349.606,261.694 L349.606,261.667 L349.606,261.644 L349.606,261.619 L349.606,261.591 L349.606,261.515 L349.606,261.49 L349.606,261.462 L349.606,261.44 L349.606,261.414 L349.608,261.414 L349.608,261.387 L349.608,261.362 L349.608,261.336 L349.608,261.309 L349.608,261.283 L349.608,261.258 L349.608,261.233 C350.194,254.279 349.288,242.848 346.926,234.005 L346.802,233.531 C336.639,193.012 299.975,163 256.302,163 C211.573,163 174.2,194.485 165.115,236.499 C163.615,241.553 163.173,247.986 163.052,253.53 C163.024,254.453 163.006,255.379 163.006,256.304 L163.006,256.481 C163,257.426 163,258.324 163,259.167 Z" id="Shape-Copy-11" fill="url(#linearGradient-5)" fill-rule="nonzero" opacity="0.9"></path>
        <path d="M490.46,360.324709 C450.15625,365.21875 425.689719,386.155406 394.386719,389.191406 C328.313719,395.591406 129.730469,305.453125 20,354.794709 C58.549,447.374709 149.876,512.465709 256.42,512.465709 C360.829,512.465709 450.625,449.953709 490.46,360.324709 Z" id="Shape-Copy-6" fill="#6F2DAB" fill-rule="nonzero"></path>
        <g id="Group-Copy" transform="translate(36.000000, 379.000000)" fill-rule="nonzero">
            <path d="M61.878,58.722 C61.878,58.722 134.907,59.517 236.172,27.389 C282.541,12.676 329.869,-1.134 378.474,1.195 C398.879,2.171 419.181,5.091 439.295,9.144 C394.472,83.371 313.036,133 220,133 C160.32,133 105.412,112.577 61.879,78.341 L61.879,58.722 L61.878,58.722 Z" id="Shape" fill="#542281"></path>
            <path d="M397.585,61.372 C365.012,59.526 281.375,52.546 202.083,27.389 C155.714,12.676 108.385,-1.134 59.781,1.195 C39.905,2.146 20.128,4.94 0.523,8.832 C45.306,83.232 126.836,133 220,133 C288.966,133 351.555,105.718 397.585,61.372 Z" id="Shape" fill="#632A96"></path>
            <path d="M381.693,75.466 C330.687,68.977 279.531,60.639 229.772,54.342 C193.812,49.791 157.242,46.65 121.412,52.15 C97.999,55.744 75.384,62.95 53.094,71.105 C97.91,109.676 156.229,133 220,133 C281.327,133 337.608,111.425 381.693,75.466 Z" id="Shape" fill="#542281"></path>
        </g>
        <path d="M94.361,100.492 C96.704,100.492 98.603,102.391 98.603,104.734 C98.603,107.077 96.704,108.976 94.361,108.976 C92.018,108.976 90.119,107.077 90.119,104.734 C90.119,102.391 92.018,100.492 94.361,100.492 Z M471.136,203.431 C473.48,203.431 475.378,205.33 475.378,207.673 C475.378,210.016 473.479,211.915 471.136,211.915 C468.793,211.915 466.894,210.016 466.894,207.673 C466.894,205.33 468.793,203.431 471.136,203.431 Z M62.242,179.286 C64.585,179.286 66.484,181.185 66.484,183.528 C66.484,185.872 64.585,187.77 62.242,187.77 C59.899,187.77 58,185.871 58,183.528 C58,181.184 59.899,179.286 62.242,179.286 Z M432.349,95.552 C434.692,95.552 436.591,97.451 436.591,99.794 C436.591,102.137 434.692,104.036 432.349,104.036 C430.006,104.036 428.107,102.137 428.107,99.794 C428.107,97.451 430.006,95.552 432.349,95.552 Z M423.865,173.128 C426.208,173.128 428.107,175.027 428.107,177.37 C428.107,179.713 426.208,181.612 423.865,181.612 C421.521,181.612 419.623,179.713 419.623,177.37 C419.623,175.027 421.521,173.128 423.865,173.128 Z M319.011,22.821 C321.354,22.821 323.253,24.72 323.253,27.063 C323.253,29.406 321.354,31.305 319.011,31.305 C316.667,31.305 314.769,29.406 314.769,27.063 C314.769,24.72 316.667,22.821 319.011,22.821 Z M279.011,62.821 C281.354,62.821 283.253,64.72 283.253,67.063 C283.253,69.406 281.354,71.305 279.011,71.305 C276.667,71.305 274.769,69.406 274.769,67.063 C274.769,64.72 276.667,62.821 279.011,62.821 Z M159.011,82.821 C161.354,82.821 163.253,84.72 163.253,87.063 C163.253,89.406 161.354,91.305 159.011,91.305 C156.667,91.305 154.769,89.406 154.769,87.063 C154.769,84.72 156.667,82.821 159.011,82.821 Z M354.011,52.821 C356.354,52.821 358.253,54.72 358.253,57.063 C358.253,59.406 356.354,61.305 354.011,61.305 C351.667,61.305 349.769,59.406 349.769,57.063 C349.769,54.72 351.667,52.821 354.011,52.821 Z M199.416,31 C201.759,31 203.658,32.899 203.658,35.242 C203.658,37.585 201.759,39.484 199.416,39.484 C197.073,39.484 195.174,37.585 195.174,35.242 C195.174,32.899 197.073,31 199.416,31 Z M113.561,173.128 C115.904,173.128 117.803,175.027 117.803,177.37 C117.803,179.713 115.904,181.612 113.561,181.612 C111.218,181.612 109.319,179.713 109.319,177.37 C109.319,175.027 111.218,173.128 113.561,173.128 Z" id="Shape-Copy-3" fill="#FFFFFF" fill-rule="nonzero" opacity="0.5"></path>
        <polygon id="Polygon-Copy-3" stroke="url(#linearGradient-6)" stroke-width="5" points="257 121 374 188.5 374 323.5 257 391 140 323.5 140 188.5"></polygon>
        <path d="M141.577637,189.895508 L256.71875,249.734375" id="Line-Copy" stroke="url(#linearGradient-7)" stroke-width="5" stroke-linecap="square"></path>
        <path d="M371.414062,190.132812 L256.71875,249.734375" id="Line-Copy-2" stroke="url(#linearGradient-8)" stroke-width="5" stroke-linecap="square"></path>
        <g id="Group" transform="translate(332.000000, 69.000000)">
            <path d="M40,0 C62.0906694,0 80,17.9087636 80,40 C80,62.0923705 62.0906694,80 40,80 C17.9070625,80 0,62.0923705 0,40 C3.22323829e-14,17.9081965 17.9070625,0 40,0 Z" id="Shape" fill="#FFFFFF" fill-rule="nonzero"></path>
            <path d="M58.4399763,5 C65.3234772,8.51747162 71.0685985,13.8411815 75,20.3215478 C72.9869899,21.9915742 70.3713779,23 67.5115316,23 C61.1543465,23 56,18.0128136 56,11.860386 C56,9.27236018 56.9130692,6.89265842 58.4399763,5 Z" id="Shape" fill="#EFEFEF" fill-rule="nonzero"></path>
            <circle id="Oval" fill="#EFEFEF" cx="44" cy="39" r="13"></circle>
            <circle id="Oval-Copy" fill="#EFEFEF" cx="18" cy="26" r="9"></circle>
            <circle id="Oval-Copy-2" fill="#EFEFEF" cx="32" cy="10" r="4"></circle>
            <circle id="Oval-Copy-3" fill="#EFEFEF" cx="24" cy="61" r="4"></circle>
        </g>
        <rect id="Rectangle" fill="url(#linearGradient-9)" x="254.199951" y="249" width="5" height="140"></rect>
    </g>
</svg>